<?xml version="1.0" encoding="UTF-8"?>
<svg width="643px" height="337px" viewBox="0 0 643 337" version="1.1" xmlns="http://www.w3.org/2000/svg" xmlns:xlink="http://www.w3.org/1999/xlink">
    <!-- Generator: Sketch 46.2 (44496) - http://www.bohemiancoding.com/sketch -->
    <title>Group 8</title>
    <desc>Created with Sketch.</desc>
    <defs></defs>
    <g id="Home" stroke="none" stroke-width="1" fill="none" fill-rule="evenodd">
        <g id="Group-8">
            <rect id="Rectangle-28" fill="#EAEAEA" x="0" y="0" width="643" height="337"></rect>
            <g id="1-1(组合1)" transform="translate(257.000000, 103.000000)">
                <g id="_572601376">
                    <g id="Group">
                        <path d="M0.000786217895,59.4789691 C2.50567147,27.7920728 27.7904564,2.50493674 59.4773527,0 L59.4773527,8.28044067 C59.4773527,9.19481594 59.2682185,9.69091234 58.1415667,9.8222128 C32.8937298,12.7917551 12.8514901,32.7994493 9.83163111,58.0307256 C9.67045641,59.3822313 8.90782574,59.4789348 7.8755186,59.4789348 L0.000760476073,59.4789348 L0.000786217895,59.4789691 Z" id="_572601880" fill="#D3D6D7"></path>
                        <path d="M69.8365346,0 C101.523431,2.50488526 126.80825,27.791987 129.313101,59.4789691 L121.395886,59.4789691 C119.960256,59.4789691 119.647339,58.7839528 119.436633,57.6667362 C116.270535,32.6209727 96.3210772,12.7996836 71.2139623,9.82693213 C70.0401352,9.68855782 69.8365088,8.87639818 69.8365088,8.21439573 L69.8365088,-8.58060747e-06 L69.8365346,0 Z" id="_572601808" fill="#D3D5D7"></path>
                        <path d="M49.9106479,52.5688343 C56.9850327,51.4500432 64.4776878,53.6137206 69.9285187,59.0637792 C75.5468345,64.6828759 77.6735466,72.47115 76.3118214,79.7342052 C69.2374366,80.8529963 61.7440092,78.6893189 56.2931783,73.2392603 C50.6748625,67.6201637 48.5481504,59.8311172 49.9106651,52.5688343 L49.9106479,52.5688343 Z" id="_572601736" fill="#D3D5D7"></path>
                        <path d="M84.4130131,33.7995277 L81.5928506,33.7995277 L44.5187915,33.7995277 L41.0688725,33.7995277 L41.0688725,33.7995277 L41.0602241,33.7995277 C40.9855334,33.7995277 40.9116285,33.8011001 40.8369387,33.8026726 L40.8259316,33.8026726 C40.7543858,33.804245 40.6828397,33.8073899 40.6120806,33.811321 L40.5916389,33.8121072 C40.5216655,33.8160383 40.4524786,33.8199693 40.3817186,33.8254728 L40.3762151,33.8254728 L40.3699254,33.8254728 C40.299952,33.8317626 40.2291923,33.8380524 40.1592191,33.8451283 L40.1458534,33.8459145 C40.07588,33.8537767 40.0059063,33.8616389 39.9367192,33.8702873 L39.91785,33.8726459 C39.8502352,33.8812943 39.7818345,33.890729 39.7150061,33.9009497 L39.6914196,33.9040946 C39.6285222,33.9143154 39.5656244,33.9253225 39.5027277,33.9355433 L39.4767825,33.9402606 C39.4123127,33.9520539 39.3478426,33.9646334 39.2841591,33.9772128 L39.2542828,33.9835026 C39.1898129,33.9968682 39.1253428,34.0110202 39.0616593,34.0251721 L39.038859,34.0306757 C38.977534,34.0448276 38.9177815,34.0597657 38.8580287,34.0747039 L38.8210765,34.0841385 C38.7636826,34.0998629 38.7055025,34.1155872 38.6481086,34.1313116 L38.6080115,34.1431049 C38.55219,34.1588293 38.4947964,34.1753398 38.4381884,34.1934229 L38.3886567,34.208361 C38.3359801,34.2248716 38.28409,34.2421683 38.2321996,34.2594651 L38.1873852,34.2744033 C38.1331362,34.2924863 38.0804597,34.3113555 38.0277833,34.3310109 L37.9853276,34.3467353 C37.9310786,34.3663907 37.8776161,34.3868324 37.8241529,34.4080603 L37.7722626,34.4277157 C37.7266619,34.4465849 37.681061,34.464668 37.6346742,34.4843234 L37.5647008,34.5141997 C37.5222451,34.5322827 37.4790031,34.5511519 37.4357609,34.5700212 L37.3650013,34.6030424 C37.3217594,34.6219115 37.2785174,34.6423532 37.2360614,34.6627949 L37.1755227,34.6918849 C37.1362118,34.7107541 37.0969009,34.7304096 37.0575899,34.7500651 C37.0284999,34.7650032 37.0001961,34.7799414 36.971106,34.7948794 C36.9341538,34.8137486 36.898774,34.8326179 36.8626076,34.8522733 C36.8335176,34.8672115 36.8052138,34.8829358 36.7769099,34.8986602 C36.7415301,34.9183156 36.7061504,34.937971 36.6715564,34.9576265 C36.6440388,34.9733509 36.6173074,34.988289 36.5897897,35.0040134 C36.5599134,35.0220964 36.529251,35.0401793 36.499375,35.0582624 C36.4679263,35.0763454 36.4372638,35.0952146 36.4066015,35.1140839 C36.3751528,35.1337393 36.3444903,35.1526086 36.3138279,35.172264 C36.2823792,35.1919194 36.2509305,35.2123611 36.2194816,35.2320165 C36.1888191,35.2524582 36.1589428,35.2721136 36.12828,35.2925553 C33.7421075,36.8870037 32.1696768,39.6049626 32.1696768,42.6900772 L32.1696768,42.7270294 L32.1696768,42.7270294 L32.1696768,95.5168143 L35.618815,95.5168143 L35.618815,95.5168143 L35.6282497,95.5168143 C40.5373954,95.5168143 44.5187887,91.5354038 44.5187887,86.6262753 L44.5180025,86.5893231 L44.5187887,86.5893231 L44.5187887,43.0611884 L77.6790611,43.0611884 C79.7743339,43.3001987 81.4269589,44.9984322 81.5928564,47.114144 L81.5928564,89.3167464 L81.5928564,89.3167464 L81.5928564,89.3419053 C81.5928564,92.7517272 84.3579829,95.5168623 87.7678133,95.5168623 L87.7741031,95.5168623 L87.7741031,95.5168623 L90.981088,95.5168623 L93.941981,95.5168623 L97.1442466,95.5168623 L97.1442466,86.255212 L95.8383382,86.255212 C94.8618565,86.1160517 94.0882203,85.3463454 93.941981,84.371434 L93.941981,42.7270859 L93.9411948,42.7270859 L93.941981,42.6901337 C93.941981,37.780988 89.9605706,33.7995947 85.0522142,33.7995947 L85.0427796,33.7995947 L85.0427796,33.7995947 L84.4130197,33.7995947 L84.4130131,33.7995277 Z" id="_572601664" fill="#D3D6D7"></path>
                        <g transform="translate(0.000000, 69.644860)" fill="#D3D5D7">
                            <path d="M0.000786217895,0.193305082 C2.50567147,31.8802014 27.7904564,57.1673374 59.4773527,59.6722742 L59.4773527,51.3918335 C59.4773527,50.4774582 59.2682185,49.9813618 58.1415667,49.8500614 C32.8937298,46.8805191 12.8514901,26.8728249 9.83163111,1.64154859 C9.67045641,0.29004285 8.90782574,0.193339404 7.8755186,0.193339404 L0.000760476073,0.193339404 L0.000786217895,0.193305082 Z" id="_572601592"></path>
                            <path d="M69.8365346,59.6726174 C101.523431,57.1669427 126.80825,31.8806304 129.313101,0.193648306 L121.395886,0.193648306 C119.960256,0.193648306 119.647339,0.888664641 119.436633,2.00509177 C116.270535,27.0516276 96.3210772,46.8730025 71.2139623,49.8448959 C70.0401352,49.9840562 69.8365088,50.7962192 69.8365088,51.4582131 L69.8365088,59.6726174 L69.8365346,59.6726174 Z" id="_572601520"></path>
                        </g>
                    </g>
                </g>
            </g>
        </g>
    </g>
</svg>